PathFileType	4	(X/Y/Z)	/Users/itak/Documents/Research/Walk-IL/dataset/trc/00313_00010.trc
DataRate	CameraRate	NumFrames	NumMarkers	Units	OrigDataRate	OrigDataStartFrame	OrigNumFrames
100.000000	100.000000	4	53	mm	100.000000	129	517
Frame#	Time	RPSI			LPSI			L3			STRN			T10			C7			CLAV			RBAK			LBAK			LSHO			LUPA			LAEL			LAOL			LWTS			LWPS			LFRA			LIFD			LHPS			LHTS			RSHO			RUPA			RAEL			RAOL			RWTS			RWPS			RFRA			RIFD			RHTS			RHPS			RBHD			LFHD			RFHD			LBHD			LHIP			RHIP			RASI			LASI			LKNE			LTHI			LANK			LTIP			LTOE			LMT1			LMT5			LHEE			RKNE			RTHI			RANK			RTIP			RTOE			RMT1			RMT5			RHEE			
		X1	Y1	Z1	X2	Y2	Z2	X3	Y3	Z3	X4	Y4	Z4	X5	Y5	Z5	X6	Y6	Z6	X7	Y7	Z7	X8	Y8	Z8	X9	Y9	Z9	X10	Y10	Z10	X11	Y11	Z11	X12	Y12	Z12	X13	Y13	Z13	X14	Y14	Z14	X15	Y15	Z15	X16	Y16	Z16	X17	Y17	Z17	X18	Y18	Z18	X19	Y19	Z19	X20	Y20	Z20	X21	Y21	Z21	X22	Y22	Z22	X23	Y23	Z23	X24	Y24	Z24	X25	Y25	Z25	X26	Y26	Z26	X27	Y27	Z27	X28	Y28	Z28	X29	Y29	Z29	X30	Y30	Z30	X31	Y31	Z31	X32	Y32	Z32	X33	Y33	Z33	X34	Y34	Z34	X35	Y35	Z35	X36	Y36	Z36	X37	Y37	Z37	X38	Y38	Z38	X39	Y39	Z39	X40	Y40	Z40	X41	Y41	Z41	X42	Y42	Z42	X43	Y43	Z43	X44	Y44	Z44	X45	Y45	Z45	X46	Y46	Z46	X47	Y47	Z47	X48	Y48	Z48	X49	Y49	Z49	X50	Y50	Z50	X51	Y51	Z51	X52	Y52	Z52	X53	Y53	Z53	

130	1.29	-913.98828125	1005.450927734375	-642.2605590820312	-908.595703125	995.409912109375	-816.7534790039062	-889.7902221679688	1068.41552734375	-731.4305419921875	-633.8654174804688	1238.406616210938	-738.2158813476562	-899.2243041992188	1182.870727539062	-734.7120971679688	-847.2708129882812	1426.671875	-757.753173828125	-692.8404541015625	1341.047607421875	-747.0535888671875	-904.0797729492188	1293.807250976562	-676.875732421875	-862.8207397460938	1385.933471679688	-860.7904052734375	-772.4275512695312	1389.688232421875	-913.20068359375	-801.8772583007812	1271.522216796875	-985.1580200195312	-802.5552978515625	1066.056396484375	-995.2543334960938	-861.7649536132812	1057.128662109375	-932.3970336914062	-730.76708984375	840.4973754882812	-944.9004516601562	-771.3771362304688	828.2073364257812	-1003.404663085938	-793.734375	960.9075927734375	-1001.179443359375	-742.3880615234375	655.8923950195312	-938.2405395507812	-773.4546508789062	740.099365234375	-996.71240234375	-717.7313842773438	738.5238037109375	-961.1062622070312	-783.3977661132812	1407.831787109375	-597.5125732421875	-790.8251953125	1350.433349609375	-529.328857421875	-790.6898193359375	1084.63623046875	-469.1733703613281	-824.7984619140625	1073.784790039062	-558.2970581054688	-689.0550537109375	860.2059326171875	-511.4015502929688	-732.2286987304688	858.0858154296875	-439.0310974121094	-765.7991943359375	1018.906555175781	-455.9943542480469	-680.73681640625	674.3121337890625	-503.7648315429688	-658.2117919921875	745.563232421875	-488.3946533203125	-707.5916137695312	746.7803344726562	-436.3772277832031	-823.5043334960938	1585.730590820312	-693.054931640625	-636.7191162109375	1619.446899414062	-788.7733764648438	-650.0394897460938	1617.4326171875	-696.7681274414062	-801.8617553710938	1578.863891601562	-837.2986450195312	-839.0215454101562	942.9758911132812	-909.419189453125	-819.0142211914062	952.68408203125	-534.8208618164062	-697.18896484375	952.4734497070312	-602.6156005859375	-702.6699829101562	945.8417358398438	-854.1986694335938	-790.4242553710938	473.7983703613281	-859.0588989257812	-789.1839599609375	614.7457885742188	-886.2822875976562	-933.8720092773438	46.68250274658203	-828.9874877929688	-864.8179931640625	253.8434448242188	-854.183349609375	-727.6947631835938	40.28050994873047	-764.6420288085938	-798.2410278320312	31.21031951904297	-725.225341796875	-811.4566650390625	41.96600723266602	-838.118408203125	-980.6688842773438	44.29975891113281	-769.7658081054688	-799.0933227539062	476.0463562011719	-553.90234375	-764.9658813476562	738.2129516601562	-531.8057250976562	-934.72900390625	48.14972686767578	-557.44482421875	-809.6652221679688	351.8658447265625	-559.74072265625	-739.911376953125	44.23748779296875	-606.7363891601562	-798.3284301757812	38.83639526367188	-647.6256103515625	-830.5567626953125	38.68218231201172	-534.5014038085938	-988.0299682617188	41.08821487426758	-605.5533447265625	
131	1.3	-912.6007080078125	1004.46826171875	-642.991455078125	-906.9710083007812	995.1404418945312	-817.5208129882812	-888.0569458007812	1068.09716796875	-732.1978149414062	-631.6088256835938	1237.78662109375	-738.811279296875	-897.3152465820312	1182.655395507812	-735.5816650390625	-844.8101196289062	1426.337768554688	-758.6613159179688	-690.7109375	1340.359741210938	-747.70751953125	-901.99267578125	1293.577026367188	-677.8750610351562	-860.3705444335938	1385.57568359375	-861.7301635742188	-769.8959350585938	1389.163940429688	-913.9967041015625	-799.2742919921875	1270.993774414062	-986.0208740234375	-800.0427856445312	1065.408447265625	-995.93115234375	-859.2578735351562	1056.59765625	-933.1343383789062	-727.5658569335938	840.062255859375	-945.9976806640625	-769.0736694335938	827.3803100585938	-1003.610168457031	-791.211669921875	960.2353515625	-1001.668884277344	-738.9911499023438	655.5238647460938	-937.8463745117188	-771.0836791992188	739.3416748046875	-996.2982177734375	-714.6286010742188	738.041748046875	-961.9064331054688	-781.3471069335938	1407.370727539062	-598.36279296875	-789.0335083007812	1349.994262695312	-530.2073974609375	-789.8348388671875	1084.357666015625	-469.66748046875	-823.3845825195312	1073.386596679688	-558.9800415039062	-688.5166015625	859.506103515625	-510.2742919921875	-732.644287109375	857.7254028320312	-438.3685913085938	-765.314208984375	1018.634399414062	-456.1404418945312	-680.8700561523438	673.6411743164062	-501.9493103027344	-658.317626953125	744.88134765625	-486.4851684570312	-708.2544555664062	746.41015625	-435.0827331542969	-820.965576171875	1585.479614257812	-693.8678588867188	-633.7975463867188	1618.551879882812	-789.1131591796875	-647.3704833984375	1616.632446289062	-697.1329956054688	-798.9735107421875	1578.450561523438	-838.054443359375	-837.4229736328125	942.898681640625	-910.3431396484375	-817.4937744140625	951.5188598632812	-535.6624145507812	-695.7697143554688	951.6533203125	-603.497802734375	-701.1802978515625	945.4347534179688	-855.1024169921875	-789.8942260742188	473.5707702636719	-859.5820922851562	-788.1618041992188	614.560546875	-886.8421630859375	-933.8900756835938	46.64235687255859	-829.0076293945312	-864.5365600585938	253.6588745117188	-854.4578857421875	-727.7032470703125	40.25552368164062	-764.6450805664062	-798.1830444335938	31.24706077575684	-725.229736328125	-811.4747314453125	41.95573806762695	-838.1194458007812	-980.70556640625	44.24883651733398	-769.7909545898438	-793.77685546875	475.0393981933594	-554.6160278320312	-762.2459716796875	737.2890625	-532.4835815429688	-934.5420532226562	48.72591018676758	-557.5277099609375	-805.385009765625	350.826171875	-560.1719970703125	-739.763671875	44.18228149414062	-606.6728515625	-798.0999755859375	38.83951568603516	-647.5664672851562	-830.4286499023438	38.69128036499023	-534.4696044921875	-987.8434448242188	42.07722091674805	-605.6016235351562	
132	1.31	-911.2329711914062	1003.429992675781	-643.6928100585938	-905.3501586914062	994.8549194335938	-818.2623291015625	-886.3255004882812	1067.763671875	-732.9483642578125	-629.3280029296875	1237.085571289062	-739.3944091796875	-895.3939819335938	1182.431274414062	-736.4547729492188	-842.2911376953125	1425.989624023438	-759.5765991210938	-688.528076171875	1339.620239257812	-748.3295288085938	-899.88916015625	1293.33740234375	-678.8933715820312	-857.8206176757812	1385.201049804688	-862.6860961914062	-767.2540283203125	1388.589111328125	-914.78515625	-796.5321044921875	1270.400024414062	-986.8612060546875	-797.3983764648438	1064.70068359375	-996.5726318359375	-856.69580078125	1055.998901367188	-933.8925170898438	-724.1283569335938	839.652587890625	-947.0146484375	-766.4973754882812	826.51708984375	-1003.722290039062	-788.497314453125	959.49609375	-1002.097534179688	-735.0916748046875	655.1838989257812	-937.3303833007812	-768.31689453125	738.55322265625	-995.7714233398438	-711.1449584960938	737.6126098632812	-962.601806640625	-779.2518920898438	1406.881103515625	-599.1937866210938	-787.240234375	1349.52294921875	-531.0709228515625	-789.0643920898438	1084.048706054688	-470.1297302246094	-822.0661010742188	1072.966796875	-559.635009765625	-688.1096801757812	858.7431640625	-509.1997375488281	-733.162353515625	857.3185424804688	-437.707763671875	-764.8871459960938	1018.325988769531	-456.2583312988281	-681.1340942382812	672.9642944335938	-500.1755065917969	-658.5691528320312	744.1796264648438	-484.6026611328125	-709.0428466796875	745.9918212890625	-433.832763671875	-818.3306274414062	1585.212768554688	-694.6569213867188	-630.744873046875	1617.62353515625	-789.3914184570312	-644.6121215820312	1615.780029296875	-697.431640625	-795.9475708007812	1578.045532226562	-838.778076171875	-835.8107299804688	942.8182983398438	-911.250244140625	-815.9840087890625	950.2994384765625	-536.4952392578125	-694.355712890625	950.780029296875	-604.378662109375	-699.7366333007812	944.9655151367188	-856.0023193359375	-789.365234375	473.3431091308594	-860.1574096679688	-787.1814575195312	614.3829956054688	-887.440185546875	-933.9117431640625	46.59698867797852	-829.0264282226562	-864.2579345703125	253.4720001220703	-854.7496337890625	-727.7161254882812	40.232421875	-764.65087890625	-798.1101684570312	31.30632209777832	-725.2378540039062	-811.48828125	41.93741607666016	-838.1310424804688	-980.7376098632812	44.19525527954102	-769.8129272460938	-788.154296875	474.0764770507812	-555.3296508789062	-759.3464965820312	736.4401245117188	-533.22412109375	-934.3104248046875	49.50360107421875	-557.5966186523438	-800.91552734375	349.8417663574219	-560.6044311523438	-739.6077270507812	44.14230346679688	-606.6197509765625	-797.8494873046875	38.87190246582031	-647.5031127929688	-830.2706909179688	38.73746490478516	-534.4223022460938	-987.5957641601562	43.38495635986328	-605.637939453125	
133	1.32	-909.8894653320312	1002.365051269531	-644.3698120117188	-903.731201171875	994.5556030273438	-818.9803466796875	-884.6102905273438	1067.422607421875	-733.68896484375	-627.06494140625	1236.293823242188	-739.9522094726562	-893.4686889648438	1182.206787109375	-737.3344116210938	-839.7205200195312	1425.634521484375	-760.4978637695312	-686.2916870117188	1338.834106445312	-748.9169921875	-897.7772216796875	1293.097534179688	-679.9293212890625	-855.1671752929688	1384.814208984375	-863.6505126953125	-764.50341796875	1387.963134765625	-915.5619506835938	-793.6516723632812	1269.740112304688	-987.6724853515625	-794.6128540039062	1063.930908203125	-997.1766967773438	-854.0733032226562	1055.328369140625	-934.675048828125	-720.4384765625	839.2781372070312	-947.9276123046875	-763.6254272460938	825.6248779296875	-1003.734436035156	-785.57470703125	958.6882934570312	-1002.460998535156	-730.6622314453125	654.8759155273438	-936.7249755859375	-765.1318359375	737.7478637695312	-995.1494750976562	-707.2849731445312	737.2263793945312	-963.1756591796875	-777.1134643554688	1406.3759765625	-600.0010986328125	-785.44482421875	1349.034301757812	-531.9134521484375	-788.386962890625	1083.724975585938	-470.5624389648438	-820.848876953125	1072.53955078125	-560.2686767578125	-687.83544921875	857.9276733398438	-508.1954650878906	-733.7821655273438	856.8809204101562	-437.0560913085938	-764.53369140625	1017.99365234375	-456.3529357910156	-681.5258178710938	672.2958374023438	-498.4474487304688	-658.9638671875	743.47021484375	-482.7510986328125	-709.9783325195312	745.5404052734375	-432.6364440917969	-815.5979614257812	1584.938720703125	-695.420166015625	-627.56103515625	1616.673828125	-789.6047973632812	-641.7625732421875	1614.886352539062	-697.662353515625	-792.7842407226562	1577.659545898438	-839.4674072265625	-834.1824340820312	942.724609375	-912.1354370117188	-814.4728393554688	949.0643310546875	-537.3094482421875	-692.9605712890625	949.8731689453125	-605.25048828125	-698.3336791992188	944.4260864257812	-856.8917846679688	-788.8401489257812	473.1139831542969	-860.7800903320312	-786.2463989257812	614.2083740234375	-888.0767211914062	-933.9365844726562	46.54900360107422	-829.0452270507812	-863.9847412109375	253.2865753173828	-855.058349609375	-727.7374267578125	40.22035980224609	-764.6553344726562	-798.0330200195312	31.37922668457031	-725.2484130859375	-811.4951171875	41.91063690185547	-838.15234375	-980.7654418945312	44.14495468139648	-769.8334350585938	-782.209716796875	473.2123413085938	-556.0573120117188	-756.2058715820312	735.7161865234375	-534.0790405273438	-934.0151977539062	50.53848266601562	-557.6504516601562	-796.2423095703125	348.9655151367188	-561.032958984375	-739.44384765625	44.11667251586914	-606.573486328125	-797.578125	38.94577026367188	-647.4392700195312	-830.0773315429688	38.83872222900391	-534.35693359375	-987.271240234375	45.07741928100586	-605.6739501953125	
